// === Articulação: Hihat_ClosedEdge ===

// --- Mic: Hihat ---
<group> group=1 seq_position=1 output=2 // Round-Robin: A
<region> sample=Hihat_ClosedEdge_A_vel01_mic-Hihat.wav lovel=0 hivel=11
<region> sample=Hihat_ClosedEdge_A_vel02_mic-Hihat.wav lovel=12 hivel=23
<region> sample=Hihat_ClosedEdge_A_vel03_mic-Hihat.wav lovel=24 hivel=35
<region> sample=Hihat_ClosedEdge_A_vel04_mic-Hihat.wav lovel=36 hivel=47
<region> sample=Hihat_ClosedEdge_A_vel05_mic-Hihat.wav lovel=48 hivel=59
<region> sample=Hihat_ClosedEdge_A_vel06_mic-Hihat.wav lovel=60 hivel=71
<region> sample=Hihat_ClosedEdge_A_vel07_mic-Hihat.wav lovel=72 hivel=83
<region> sample=Hihat_ClosedEdge_A_vel08_mic-Hihat.wav lovel=84 hivel=95
<region> sample=Hihat_ClosedEdge_A_vel09_mic-Hihat.wav lovel=96 hivel=107
<region> sample=Hihat_ClosedEdge_A_vel10_mic-Hihat.wav lovel=108 hivel=127
<group> group=1 seq_position=2 output=2 // Round-Robin: B
<region> sample=Hihat_ClosedEdge_B_vel01_mic-Hihat.wav lovel=0 hivel=11
<region> sample=Hihat_ClosedEdge_B_vel02_mic-Hihat.wav lovel=12 hivel=23
<region> sample=Hihat_ClosedEdge_B_vel03_mic-Hihat.wav lovel=24 hivel=35
<region> sample=Hihat_ClosedEdge_B_vel04_mic-Hihat.wav lovel=36 hivel=47
<region> sample=Hihat_ClosedEdge_B_vel05_mic-Hihat.wav lovel=48 hivel=59
<region> sample=Hihat_ClosedEdge_B_vel06_mic-Hihat.wav lovel=60 hivel=71
<region> sample=Hihat_ClosedEdge_B_vel07_mic-Hihat.wav lovel=72 hivel=83
<region> sample=Hihat_ClosedEdge_B_vel08_mic-Hihat.wav lovel=84 hivel=95
<region> sample=Hihat_ClosedEdge_B_vel09_mic-Hihat.wav lovel=96 hivel=107
<region> sample=Hihat_ClosedEdge_B_vel10_mic-Hihat.wav lovel=108 hivel=127
<group> group=1 seq_position=3 output=2 // Round-Robin: C
<region> sample=Hihat_ClosedEdge_C_vel01_mic-Hihat.wav lovel=0 hivel=11
<region> sample=Hihat_ClosedEdge_C_vel02_mic-Hihat.wav lovel=12 hivel=23
<region> sample=Hihat_ClosedEdge_C_vel03_mic-Hihat.wav lovel=24 hivel=35
<region> sample=Hihat_ClosedEdge_C_vel04_mic-Hihat.wav lovel=36 hivel=47
<region> sample=Hihat_ClosedEdge_C_vel05_mic-Hihat.wav lovel=48 hivel=59
<region> sample=Hihat_ClosedEdge_C_vel06_mic-Hihat.wav lovel=60 hivel=71
<region> sample=Hihat_ClosedEdge_C_vel07_mic-Hihat.wav lovel=72 hivel=83
<region> sample=Hihat_ClosedEdge_C_vel08_mic-Hihat.wav lovel=84 hivel=95
<region> sample=Hihat_ClosedEdge_C_vel09_mic-Hihat.wav lovel=96 hivel=107
<region> sample=Hihat_ClosedEdge_C_vel10_mic-Hihat.wav lovel=108 hivel=127
<group> group=1 seq_position=4 output=2 // Round-Robin: D
<region> sample=Hihat_ClosedEdge_D_vel01_mic-Hihat.wav lovel=0 hivel=11
<region> sample=Hihat_ClosedEdge_D_vel02_mic-Hihat.wav lovel=12 hivel=23
<region> sample=Hihat_ClosedEdge_D_vel03_mic-Hihat.wav lovel=24 hivel=35
<region> sample=Hihat_ClosedEdge_D_vel04_mic-Hihat.wav lovel=36 hivel=47
<region> sample=Hihat_ClosedEdge_D_vel05_mic-Hihat.wav lovel=48 hivel=59
<region> sample=Hihat_ClosedEdge_D_vel06_mic-Hihat.wav lovel=60 hivel=71
<region> sample=Hihat_ClosedEdge_D_vel07_mic-Hihat.wav lovel=72 hivel=83
<region> sample=Hihat_ClosedEdge_D_vel08_mic-Hihat.wav lovel=84 hivel=95
<region> sample=Hihat_ClosedEdge_D_vel09_mic-Hihat.wav lovel=96 hivel=107
<region> sample=Hihat_ClosedEdge_D_vel10_mic-Hihat.wav lovel=108 hivel=127

// --- Mic: Overhead_L ---
<group> group=1 seq_position=1 output=6 pan=-100 // Round-Robin: A
<region> sample=Hihat_ClosedEdge_A_vel01_mic-Overhead_L.wav lovel=0 hivel=11
<region> sample=Hihat_ClosedEdge_A_vel02_mic-Overhead_L.wav lovel=12 hivel=23
<region> sample=Hihat_ClosedEdge_A_vel03_mic-Overhead_L.wav lovel=24 hivel=35
<region> sample=Hihat_ClosedEdge_A_vel04_mic-Overhead_L.wav lovel=36 hivel=47
<region> sample=Hihat_ClosedEdge_A_vel05_mic-Overhead_L.wav lovel=48 hivel=59
<region> sample=Hihat_ClosedEdge_A_vel06_mic-Overhead_L.wav lovel=60 hivel=71
<region> sample=Hihat_ClosedEdge_A_vel07_mic-Overhead_L.wav lovel=72 hivel=83
<region> sample=Hihat_ClosedEdge_A_vel08_mic-Overhead_L.wav lovel=84 hivel=95
<region> sample=Hihat_ClosedEdge_A_vel09_mic-Overhead_L.wav lovel=96 hivel=107
<region> sample=Hihat_ClosedEdge_A_vel10_mic-Overhead_L.wav lovel=108 hivel=127
<group> group=1 seq_position=2 output=6 pan=-100 // Round-Robin: B
<region> sample=Hihat_ClosedEdge_B_vel01_mic-Overhead_L.wav lovel=0 hivel=11
<region> sample=Hihat_ClosedEdge_B_vel02_mic-Overhead_L.wav lovel=12 hivel=23
<region> sample=Hihat_ClosedEdge_B_vel03_mic-Overhead_L.wav lovel=24 hivel=35
<region> sample=Hihat_ClosedEdge_B_vel04_mic-Overhead_L.wav lovel=36 hivel=47
<region> sample=Hihat_ClosedEdge_B_vel05_mic-Overhead_L.wav lovel=48 hivel=59
<region> sample=Hihat_ClosedEdge_B_vel06_mic-Overhead_L.wav lovel=60 hivel=71
<region> sample=Hihat_ClosedEdge_B_vel07_mic-Overhead_L.wav lovel=72 hivel=83
<region> sample=Hihat_ClosedEdge_B_vel08_mic-Overhead_L.wav lovel=84 hivel=95
<region> sample=Hihat_ClosedEdge_B_vel09_mic-Overhead_L.wav lovel=96 hivel=107
<region> sample=Hihat_ClosedEdge_B_vel10_mic-Overhead_L.wav lovel=108 hivel=127
<group> group=1 seq_position=3 output=6 pan=-100 // Round-Robin: C
<region> sample=Hihat_ClosedEdge_C_vel01_mic-Overhead_L.wav lovel=0 hivel=11
<region> sample=Hihat_ClosedEdge_C_vel02_mic-Overhead_L.wav lovel=12 hivel=23
<region> sample=Hihat_ClosedEdge_C_vel03_mic-Overhead_L.wav lovel=24 hivel=35
<region> sample=Hihat_ClosedEdge_C_vel04_mic-Overhead_L.wav lovel=36 hivel=47
<region> sample=Hihat_ClosedEdge_C_vel05_mic-Overhead_L.wav lovel=48 hivel=59
<region> sample=Hihat_ClosedEdge_C_vel06_mic-Overhead_L.wav lovel=60 hivel=71
<region> sample=Hihat_ClosedEdge_C_vel07_mic-Overhead_L.wav lovel=72 hivel=83
<region> sample=Hihat_ClosedEdge_C_vel08_mic-Overhead_L.wav lovel=84 hivel=95
<region> sample=Hihat_ClosedEdge_C_vel09_mic-Overhead_L.wav lovel=96 hivel=107
<region> sample=Hihat_ClosedEdge_C_vel10_mic-Overhead_L.wav lovel=108 hivel=127
<group> group=1 seq_position=4 output=6 pan=-100 // Round-Robin: D
<region> sample=Hihat_ClosedEdge_D_vel01_mic-Overhead_L.wav lovel=0 hivel=11
<region> sample=Hihat_ClosedEdge_D_vel02_mic-Overhead_L.wav lovel=12 hivel=23
<region> sample=Hihat_ClosedEdge_D_vel03_mic-Overhead_L.wav lovel=24 hivel=35
<region> sample=Hihat_ClosedEdge_D_vel04_mic-Overhead_L.wav lovel=36 hivel=47
<region> sample=Hihat_ClosedEdge_D_vel05_mic-Overhead_L.wav lovel=48 hivel=59
<region> sample=Hihat_ClosedEdge_D_vel06_mic-Overhead_L.wav lovel=60 hivel=71
<region> sample=Hihat_ClosedEdge_D_vel07_mic-Overhead_L.wav lovel=72 hivel=83
<region> sample=Hihat_ClosedEdge_D_vel08_mic-Overhead_L.wav lovel=84 hivel=95
<region> sample=Hihat_ClosedEdge_D_vel09_mic-Overhead_L.wav lovel=96 hivel=107
<region> sample=Hihat_ClosedEdge_D_vel10_mic-Overhead_L.wav lovel=108 hivel=127

// --- Mic: Overhead_R ---
<group> group=1 seq_position=1 output=6 pan=100 // Round-Robin: A
<region> sample=Hihat_ClosedEdge_A_vel01_mic-Overhead_R.wav lovel=0 hivel=11
<region> sample=Hihat_ClosedEdge_A_vel02_mic-Overhead_R.wav lovel=12 hivel=23
<region> sample=Hihat_ClosedEdge_A_vel03_mic-Overhead_R.wav lovel=24 hivel=35
<region> sample=Hihat_ClosedEdge_A_vel04_mic-Overhead_R.wav lovel=36 hivel=47
<region> sample=Hihat_ClosedEdge_A_vel05_mic-Overhead_R.wav lovel=48 hivel=59
<region> sample=Hihat_ClosedEdge_A_vel06_mic-Overhead_R.wav lovel=60 hivel=71
<region> sample=Hihat_ClosedEdge_A_vel07_mic-Overhead_R.wav lovel=72 hivel=83
<region> sample=Hihat_ClosedEdge_A_vel08_mic-Overhead_R.wav lovel=84 hivel=95
<region> sample=Hihat_ClosedEdge_A_vel09_mic-Overhead_R.wav lovel=96 hivel=107
<region> sample=Hihat_ClosedEdge_A_vel10_mic-Overhead_R.wav lovel=108 hivel=127
<group> group=1 seq_position=2 output=6 pan=100 // Round-Robin: B
<region> sample=Hihat_ClosedEdge_B_vel01_mic-Overhead_R.wav lovel=0 hivel=11
<region> sample=Hihat_ClosedEdge_B_vel02_mic-Overhead_R.wav lovel=12 hivel=23
<region> sample=Hihat_ClosedEdge_B_vel03_mic-Overhead_R.wav lovel=24 hivel=35
<region> sample=Hihat_ClosedEdge_B_vel04_mic-Overhead_R.wav lovel=36 hivel=47
<region> sample=Hihat_ClosedEdge_B_vel05_mic-Overhead_R.wav lovel=48 hivel=59
<region> sample=Hihat_ClosedEdge_B_vel06_mic-Overhead_R.wav lovel=60 hivel=71
<region> sample=Hihat_ClosedEdge_B_vel07_mic-Overhead_R.wav lovel=72 hivel=83
<region> sample=Hihat_ClosedEdge_B_vel08_mic-Overhead_R.wav lovel=84 hivel=95
<region> sample=Hihat_ClosedEdge_B_vel09_mic-Overhead_R.wav lovel=96 hivel=107
<region> sample=Hihat_ClosedEdge_B_vel10_mic-Overhead_R.wav lovel=108 hivel=127
<group> group=1 seq_position=3 output=6 pan=100 // Round-Robin: C
<region> sample=Hihat_ClosedEdge_C_vel01_mic-Overhead_R.wav lovel=0 hivel=11
<region> sample=Hihat_ClosedEdge_C_vel02_mic-Overhead_R.wav lovel=12 hivel=23
<region> sample=Hihat_ClosedEdge_C_vel03_mic-Overhead_R.wav lovel=24 hivel=35
<region> sample=Hihat_ClosedEdge_C_vel04_mic-Overhead_R.wav lovel=36 hivel=47
<region> sample=Hihat_ClosedEdge_C_vel05_mic-Overhead_R.wav lovel=48 hivel=59
<region> sample=Hihat_ClosedEdge_C_vel06_mic-Overhead_R.wav lovel=60 hivel=71
<region> sample=Hihat_ClosedEdge_C_vel07_mic-Overhead_R.wav lovel=72 hivel=83
<region> sample=Hihat_ClosedEdge_C_vel08_mic-Overhead_R.wav lovel=84 hivel=95
<region> sample=Hihat_ClosedEdge_C_vel09_mic-Overhead_R.wav lovel=96 hivel=107
<region> sample=Hihat_ClosedEdge_C_vel10_mic-Overhead_R.wav lovel=108 hivel=127
<group> group=1 seq_position=4 output=6 pan=100 // Round-Robin: D
<region> sample=Hihat_ClosedEdge_D_vel01_mic-Overhead_R.wav lovel=0 hivel=11
<region> sample=Hihat_ClosedEdge_D_vel02_mic-Overhead_R.wav lovel=12 hivel=23
<region> sample=Hihat_ClosedEdge_D_vel03_mic-Overhead_R.wav lovel=24 hivel=35
<region> sample=Hihat_ClosedEdge_D_vel04_mic-Overhead_R.wav lovel=36 hivel=47
<region> sample=Hihat_ClosedEdge_D_vel05_mic-Overhead_R.wav lovel=48 hivel=59
<region> sample=Hihat_ClosedEdge_D_vel06_mic-Overhead_R.wav lovel=60 hivel=71
<region> sample=Hihat_ClosedEdge_D_vel07_mic-Overhead_R.wav lovel=72 hivel=83
<region> sample=Hihat_ClosedEdge_D_vel08_mic-Overhead_R.wav lovel=84 hivel=95
<region> sample=Hihat_ClosedEdge_D_vel09_mic-Overhead_R.wav lovel=96 hivel=107
<region> sample=Hihat_ClosedEdge_D_vel10_mic-Overhead_R.wav lovel=108 hivel=127
